<?xml version="1.0" standalone="no"?>
<!DOCTYPE svg PUBLIC "-//W3C//DTD SVG 20010904//EN"
 "http://www.w3.org/TR/2001/REC-SVG-20010904/DTD/svg10.dtd">
<svg version="1.0" xmlns="http://www.w3.org/2000/svg"
 width="632.000000pt" height="355.000000pt" viewBox="0 0 632.000000 355.000000"
 preserveAspectRatio="xMidYMid meet">

<g transform="translate(0.000000,355.000000) scale(0.100000,-0.100000)"
fill="#000000" stroke="none">
<path d="M0 1775 l0 -1775 3160 0 3160 0 0 1775 0 1775 -3160 0 -3160 0 0
-1775z m3380 1680 c10 -12 9 -21 -3 -47 -8 -18 -27 -73 -42 -123 -78 -259
-201 -500 -323 -636 l-47 -53 0 -80 c-1 -136 -60 -232 -159 -257 -43 -11 -45
-13 -70 -82 -14 -40 -26 -81 -26 -92 0 -33 100 -190 168 -265 146 -161 389
-300 643 -369 120 -33 352 -63 539 -70 168 -6 175 -7 178 -27 4 -26 -19 -34
-97 -34 l-54 0 61 -31 c34 -17 62 -36 62 -43 0 -7 -12 -23 -26 -37 -14 -13
-47 -51 -72 -84 -25 -33 -50 -63 -54 -66 -5 -3 -35 -46 -67 -95 -49 -74 -57
-92 -48 -109 5 -11 13 -22 17 -25 4 -3 24 -36 45 -75 49 -90 104 -170 184
-269 l64 -79 -22 -18 c-23 -19 -122 -59 -145 -59 -14 0 -90 108 -126 181 -12
24 -28 51 -35 59 -8 8 -28 43 -45 78 -17 34 -36 62 -43 62 -7 -1 -34 -40 -62
-87 -101 -175 -165 -263 -189 -263 -33 0 -129 30 -144 45 -15 14 -12 18 69
109 20 23 70 93 112 156 42 63 89 133 106 155 34 45 41 25 -68 209 -75 127
-111 166 -154 166 -24 0 -32 25 -17 60 13 30 18 33 85 45 38 7 34 9 -70 30
-187 39 -314 93 -467 197 -143 98 -276 253 -344 403 -14 30 -29 55 -33 55 -4
0 -20 -22 -35 -50 -44 -81 -139 -203 -223 -285 -169 -166 -365 -289 -603 -375
l-75 -28 -7 -53 c-8 -74 -10 -299 -1 -299 4 0 16 8 27 19 34 30 119 71 149 71
45 0 95 -26 116 -62 38 -61 51 -154 51 -357 0 -218 3 -212 -94 -215 l-51 -1 3
155 c2 85 -1 179 -7 209 -20 97 -78 128 -141 75 -55 -46 -63 -75 -55 -185 8
-124 -1 -206 -25 -219 -10 -5 -42 -12 -71 -16 l-54 -6 0 447 0 447 28 24 c15
13 40 24 55 24 35 0 136 48 278 133 275 163 518 383 652 590 42 63 44 69 37
116 -6 46 -10 52 -53 77 -187 109 -359 278 -435 429 -57 114 -75 251 -47 355
19 72 107 257 142 301 19 24 57 52 95 71 57 28 69 30 135 26 91 -6 144 -32
213 -104 90 -93 136 -223 156 -439 12 -134 17 -149 47 -153 30 -5 112 80 181
183 53 80 261 489 261 513 0 20 31 62 45 62 7 0 18 -7 25 -15z m-1995 -2146
c68 -32 71 -42 28 -75 -21 -15 -80 -68 -131 -118 l-93 -91 6 -43 c7 -45 17
-74 69 -187 18 -38 39 -86 46 -105 7 -19 17 -39 20 -45 4 -5 27 -46 50 -90 23
-44 55 -96 71 -116 l28 -37 -58 -26 c-79 -35 -104 -34 -135 7 -31 40 -104 193
-145 302 -16 44 -41 107 -54 140 l-25 59 -31 -49 c-18 -28 -34 -59 -37 -70 -3
-11 -4 -100 -2 -197 3 -173 3 -177 -19 -187 -35 -16 -91 -24 -119 -17 l-26 7
7 387 8 388 -31 61 -31 61 27 11 c49 19 118 33 153 29 l34 -3 0 -153 c0 -83 3
-152 7 -152 3 0 17 14 30 31 33 43 228 261 253 281 27 23 46 22 100 -3z m1567
-381 l3 -403 74 -3 c41 -2 87 2 101 8 47 20 98 92 119 170 11 40 23 75 26 78
8 9 82 -17 96 -34 10 -13 11 -46 1 -178 -13 -196 -14 -199 -56 -189 -17 4
-143 6 -279 4 l-249 -3 3 399 3 398 -29 57 c-16 32 -26 60 -23 63 12 12 105
33 155 34 l53 1 2 -402z m1510 99 l-4 -34 64 -6 c191 -18 282 -95 295 -248 8
-81 -26 -185 -76 -237 -48 -50 -163 -108 -229 -117 l-54 -7 3 -147 3 -146 -29
-14 c-16 -8 -47 -16 -70 -19 -41 -4 -42 -3 -49 29 -3 18 -3 237 1 487 l6 454
41 19 c23 10 55 19 71 19 29 0 31 -2 27 -33z m857 -41 c7 -8 9 -25 6 -38 -4
-19 2 -27 36 -48 23 -14 55 -45 72 -70 30 -42 31 -50 31 -140 1 -130 -13 -170
-82 -240 -48 -49 -65 -60 -110 -69 -151 -31 -276 19 -332 134 -47 98 -34 248
31 342 43 62 121 116 194 134 54 13 142 10 154 -5z m-2766 -10 c89 -39 118
-116 79 -208 -36 -82 -131 -170 -214 -197 -41 -14 -57 -38 -30 -49 29 -12 205
-7 230 6 21 12 22 11 22 -22 0 -56 -28 -115 -59 -124 -14 -4 -75 -7 -136 -7
-92 0 -118 4 -157 22 -55 25 -100 87 -125 172 -33 115 11 270 99 345 75 65
216 95 291 62z"/>
<path d="M2366 3342 c-27 -9 -51 -23 -54 -30 -3 -9 2 -10 25 -1 49 19 143 15
188 -8 50 -26 107 -85 133 -138 44 -88 61 -166 88 -392 4 -29 10 -43 20 -43
12 0 13 12 8 68 -9 103 -33 236 -53 302 -59 189 -212 293 -355 242z"/>
<path d="M2360 3296 c-68 -19 -109 -44 -131 -79 -73 -118 -70 -348 7 -499 55
-109 183 -253 285 -322 l54 -36 7 77 c11 120 34 180 91 237 l49 49 -7 86 c-23
281 -101 448 -228 486 -59 17 -67 17 -127 1z"/>
<path d="M3180 3008 c-77 -140 -161 -259 -218 -307 -30 -27 -41 -42 -36 -54 3
-9 14 -17 23 -17 22 0 91 83 156 185 50 80 150 293 142 302 -3 2 -32 -47 -67
-109z"/>
<path d="M2097 2989 c-4 -13 -7 -58 -7 -99 1 -141 61 -266 199 -412 80 -85
210 -191 272 -223 28 -15 29 -15 29 8 0 19 -14 32 -67 63 -84 48 -222 184
-287 283 -67 100 -106 206 -113 300 -6 86 -16 117 -26 80z"/>
<path d="M2755 2628 c-7 -25 -12 -179 -4 -183 8 -6 16 33 25 128 5 48 3 67 -5
67 -6 0 -13 -6 -16 -12z"/>
<path d="M2865 2603 c14 -21 25 -44 25 -53 0 -8 5 -22 11 -30 17 -25 0 61 -19
93 -9 15 -22 27 -30 27 -8 0 -4 -13 13 -37z"/>
<path d="M2693 2560 c-28 -46 -53 -133 -53 -186 0 -46 1 -48 42 -58 25 -6 27
-4 33 36 3 24 5 88 3 143 l-3 100 -22 -35z"/>
<path d="M2836 2573 c-3 -10 -8 -40 -11 -68 -4 -27 -13 -76 -22 -109 -23 -95
3 -86 53 19 28 58 30 92 10 140 -17 39 -22 43 -30 18z"/>
<path d="M2650 2256 c0 -3 5 -17 11 -33 8 -22 12 -24 19 -13 17 26 11 50 -10
50 -11 0 -20 -2 -20 -4z"/>
<path d="M2415 1755 c-147 -150 -278 -254 -441 -351 -52 -31 -92 -59 -89 -62
10 -10 208 98 305 166 110 77 276 239 338 330 24 34 40 62 35 61 -4 -1 -71
-65 -148 -144z"/>
<path d="M2795 1810 c18 -32 80 -107 124 -149 208 -198 497 -315 800 -326 100
-4 109 -3 61 6 -218 40 -277 54 -369 85 -218 72 -381 168 -533 312 -51 48 -88
80 -83 72z"/>
<path d="M3724 1280 c50 -107 119 -241 126 -245 5 -3 19 12 32 34 13 21 50 79
83 127 33 49 63 94 67 100 5 7 -41 10 -156 10 l-164 -1 12 -25z"/>
<path d="M4460 691 c0 -188 -4 -179 65 -160 99 26 153 101 143 194 -10 83 -54
120 -159 132 l-49 6 0 -172z"/>
<path d="M5152 843 c-60 -30 -85 -74 -89 -161 -3 -60 0 -85 14 -112 40 -78
150 -92 209 -27 72 78 50 233 -36 252 -22 5 -30 13 -32 33 -4 33 -22 37 -66
15z"/>
<path d="M2384 852 c-47 -38 -75 -90 -81 -147 l-6 -56 29 7 c103 23 209 155
162 202 -18 18 -80 14 -104 -6z"/>
</g>
</svg>
